<?xml version="1.0" encoding="UTF-8"?>
<!DOCTYPE svg PUBLIC "-//W3C//DTD SVG 1.1//EN" "http://www.w3.org/Graphics/SVG/1.1/DTD/svg11.dtd">
<!-- Creator: CorelDRAW 2021.5 -->
<svg xmlns="http://www.w3.org/2000/svg" xml:space="preserve" width="338px" height="50px" version="1.1" style="shape-rendering:geometricPrecision; text-rendering:geometricPrecision; image-rendering:optimizeQuality; fill-rule:evenodd; clip-rule:evenodd"
viewBox="0 0 338 50.07"
 xmlns:xlink="http://www.w3.org/1999/xlink"
 xmlns:xodm="http://www.corel.com/coreldraw/odm/2003">
 <defs>
  <style type="text/css">
   <![CDATA[
    .fil3 {fill:black;fill-rule:nonzero}
    .fil2 {fill:black;fill-rule:nonzero}
    .fil1 {fill:#00ABFF;fill-rule:nonzero}
    .fil0 {fill:#00ABFF;fill-rule:nonzero}
   ]]>
  </style>
 </defs>
 <g id="Слой_x0020_1">
  <metadata id="CorelCorpID_0Corel-Layer"/>
  <g id="_1933935032256">
   <path class="fil0" d="M47.59 30.88c-3.18,10.07 -12.6,17.38 -23.73,17.38 -11.13,0 -20.54,-7.31 -23.73,-17.38l8 0c2.8,5.86 8.79,9.91 15.73,9.91 6.94,0 12.93,-4.05 15.73,-9.91l8 0z"/>
   <path class="fil1" d="M42.56 8.96c0,-4.32 -3.5,-7.82 -7.82,-7.82 -2.22,0 -4.23,0.93 -5.65,2.41l-5.24 5.24 -5.25 -5.24c-1.42,-1.48 -3.42,-2.41 -5.64,-2.41 -4.33,0 -7.83,3.5 -7.83,7.82 0,2.16 0.88,4.12 2.31,5.54l16.4 16.42 16.41 -16.42c1.43,-1.41 2.31,-3.37 2.31,-5.54z"/>
   <g>
    <path class="fil2" d="M69.95 14.14l-2.77 0 0 6.98 -3.99 0 0 -17.31 3.99 0 0 7 2.86 0 4.56 -7 4.22 0 -5.66 8.36 5.84 8.95 -4.55 0 -4.5 -6.98zm10.93 -6.33l3.83 0 0 7.92 6.48 -7.92 3.54 0 0 13.31 -3.84 0 0 -7.92 -6.45 7.92 -3.56 0 0 -13.31zm23.89 13.51c-1.42,0 -2.69,-0.3 -3.82,-0.88 -1.13,-0.59 -2.02,-1.4 -2.65,-2.44 -0.64,-1.04 -0.95,-2.22 -0.95,-3.53 0,-1.32 0.31,-2.5 0.95,-3.54 0.63,-1.04 1.52,-1.85 2.65,-2.44 1.13,-0.58 2.4,-0.87 3.82,-0.87 1.4,0 2.62,0.29 3.67,0.87 1.05,0.59 1.81,1.43 2.29,2.51l-3 1.61c-0.69,-1.22 -1.69,-1.83 -2.99,-1.83 -1,0 -1.84,0.33 -2.5,0.99 -0.66,0.66 -0.98,1.56 -0.98,2.7 0,1.13 0.32,2.03 0.98,2.69 0.66,0.66 1.5,0.99 2.5,0.99 1.32,0 2.32,-0.61 2.99,-1.83l3 1.63c-0.48,1.06 -1.24,1.88 -2.29,2.48 -1.05,0.59 -2.27,0.89 -3.67,0.89zm20.87 -13.51l0 13.31 -3.86 0 0 -10.14 -4.2 0 -0.13 2.35c-0.06,1.75 -0.23,3.2 -0.49,4.35 -0.26,1.15 -0.69,2.06 -1.29,2.72 -0.59,0.66 -1.41,0.99 -2.47,0.99 -0.56,0 -1.23,-0.1 -2,-0.3l0.19 -3.16c0.27,0.03 0.46,0.05 0.57,0.05 0.58,0 1.01,-0.21 1.3,-0.63 0.29,-0.42 0.48,-0.96 0.58,-1.61 0.1,-0.65 0.18,-1.51 0.23,-2.59l0.19 -5.34 11.38 0zm9.94 13.51c-1.4,0 -2.66,-0.3 -3.77,-0.88 -1.11,-0.59 -1.98,-1.4 -2.61,-2.44 -0.63,-1.04 -0.94,-2.22 -0.94,-3.53 0,-1.32 0.31,-2.5 0.94,-3.54 0.63,-1.04 1.5,-1.85 2.61,-2.44 1.11,-0.58 2.37,-0.87 3.77,-0.87 1.4,0 2.66,0.29 3.76,0.87 1.11,0.59 1.97,1.4 2.6,2.44 0.62,1.04 0.94,2.22 0.94,3.54 0,1.31 -0.32,2.49 -0.94,3.53 -0.63,1.04 -1.49,1.85 -2.6,2.44 -1.1,0.58 -2.36,0.88 -3.76,0.88zm0 -3.17c0.99,0 1.8,-0.33 2.44,-1 0.63,-0.67 0.95,-1.56 0.95,-2.68 0,-1.13 -0.32,-2.02 -0.95,-2.69 -0.64,-0.67 -1.45,-1 -2.44,-1 -0.99,0 -1.8,0.33 -2.45,1 -0.64,0.67 -0.96,1.56 -0.96,2.69 0,1.12 0.32,2.01 0.96,2.68 0.65,0.67 1.46,1 2.45,1zm20.11 -3.98c1.56,0.53 2.35,1.58 2.35,3.16 0,1.21 -0.46,2.14 -1.36,2.8 -0.91,0.66 -2.26,0.99 -4.06,0.99l-7.1 0 0 -13.31 6.8 0c1.67,0 2.97,0.3 3.91,0.91 0.94,0.6 1.41,1.44 1.41,2.53 0,0.66 -0.17,1.24 -0.51,1.74 -0.33,0.51 -0.82,0.9 -1.44,1.18zm-6.63 -0.89l2.92 0c1.35,0 2.03,-0.48 2.03,-1.44 0,-0.94 -0.68,-1.41 -2.03,-1.41l-2.92 0 0 2.85zm3.24 5.22c1.42,0 2.13,-0.49 2.13,-1.46 0,-0.51 -0.17,-0.89 -0.5,-1.13 -0.33,-0.24 -0.85,-0.36 -1.56,-0.36l-3.31 0 0 2.95 3.24 0zm14.84 2.82c-1.4,0 -2.66,-0.3 -3.77,-0.88 -1.12,-0.59 -1.99,-1.4 -2.61,-2.44 -0.63,-1.04 -0.94,-2.22 -0.94,-3.53 0,-1.32 0.31,-2.5 0.94,-3.54 0.62,-1.04 1.49,-1.85 2.61,-2.44 1.11,-0.58 2.37,-0.87 3.77,-0.87 1.4,0 2.65,0.29 3.76,0.87 1.1,0.59 1.97,1.4 2.59,2.44 0.63,1.04 0.94,2.22 0.94,3.54 0,1.31 -0.31,2.49 -0.94,3.53 -0.62,1.04 -1.49,1.85 -2.59,2.44 -1.11,0.58 -2.36,0.88 -3.76,0.88zm0 -3.17c0.99,0 1.8,-0.33 2.43,-1 0.64,-0.67 0.96,-1.56 0.96,-2.68 0,-1.13 -0.32,-2.02 -0.96,-2.69 -0.63,-0.67 -1.44,-1 -2.43,-1 -0.99,0 -1.81,0.33 -2.45,1 -0.64,0.67 -0.96,1.56 -0.96,2.69 0,1.12 0.32,2.01 0.96,2.68 0.64,0.67 1.46,1 2.45,1zm24.66 -0.2l0 6.04 -3.59 0 0 -2.87 -9.35 0 0 2.87 -3.59 0 0 -6.04 0.55 0c0.82,-0.01 1.39,-0.5 1.71,-1.46 0.31,-0.95 0.51,-2.31 0.59,-4.08l0.17 -4.6 11.6 0 0 10.14 1.91 0zm-10.19 -5.27c-0.05,1.36 -0.16,2.46 -0.31,3.32 -0.16,0.86 -0.45,1.51 -0.88,1.95l5.61 0 0 -6.97 -4.35 0 -0.07 1.7zm18.94 8.64c-1.42,0 -2.69,-0.3 -3.82,-0.88 -1.13,-0.59 -2.01,-1.4 -2.65,-2.44 -0.63,-1.04 -0.95,-2.22 -0.95,-3.53 0,-1.32 0.32,-2.5 0.95,-3.54 0.64,-1.04 1.52,-1.85 2.65,-2.44 1.13,-0.58 2.4,-0.87 3.82,-0.87 1.4,0 2.63,0.29 3.67,0.87 1.05,0.59 1.81,1.43 2.29,2.51l-2.99 1.61c-0.69,-1.22 -1.69,-1.83 -2.99,-1.83 -1.01,0 -1.84,0.33 -2.5,0.99 -0.66,0.66 -0.99,1.56 -0.99,2.7 0,1.13 0.33,2.03 0.99,2.69 0.66,0.66 1.49,0.99 2.5,0.99 1.31,0 2.31,-0.61 2.99,-1.83l2.99 1.63c-0.48,1.06 -1.24,1.88 -2.29,2.48 -1.04,0.59 -2.27,0.89 -3.67,0.89zm14.17 -5.25l-2 0 0 5.05 -3.86 0 0 -13.31 3.86 0 0 5.17 2.07 0 3.62 -5.17 4.1 0 -4.65 6.38 4.97 6.93 -4.55 0 -3.56 -5.05zm14.94 -8.45c2.06,0 3.64,0.49 4.75,1.47 1.1,0.98 1.65,2.46 1.65,4.44l0 7.59 -3.61 0 0 -1.66c-0.72,1.24 -2.07,1.86 -4.05,1.86 -1.03,0 -1.91,-0.18 -2.66,-0.52 -0.75,-0.35 -1.32,-0.83 -1.72,-1.44 -0.4,-0.61 -0.59,-1.3 -0.59,-2.08 0,-1.23 0.46,-2.2 1.39,-2.91 0.93,-0.71 2.37,-1.07 4.32,-1.07l3.07 0c0,-0.84 -0.26,-1.48 -0.77,-1.94 -0.51,-0.45 -1.28,-0.68 -2.3,-0.68 -0.71,0 -1.41,0.11 -2.09,0.34 -0.69,0.22 -1.27,0.52 -1.74,0.9l-1.39 -2.7c0.73,-0.51 1.6,-0.9 2.61,-1.18 1.01,-0.28 2.06,-0.42 3.13,-0.42zm-0.3 11.1c0.66,0 1.25,-0.15 1.76,-0.46 0.51,-0.3 0.87,-0.75 1.09,-1.35l0 -1.36 -2.65 0c-1.58,0 -2.37,0.52 -2.37,1.56 0,0.5 0.19,0.89 0.58,1.18 0.38,0.28 0.92,0.43 1.59,0.43zm21.89 -10.91l0 13.31 -3.44 0 0 -3.81 -2.84 0 -2.53 3.81 -4.1 0 3.04 -4.35c-0.92,-0.37 -1.63,-0.89 -2.11,-1.57 -0.49,-0.69 -0.73,-1.52 -0.73,-2.49 0,-1.57 0.56,-2.77 1.69,-3.62 1.13,-0.85 2.68,-1.28 4.66,-1.28l6.36 0zm-6.28 3.14c-0.83,0 -1.45,0.15 -1.87,0.45 -0.42,0.3 -0.63,0.77 -0.63,1.43 0,0.66 0.2,1.15 0.6,1.45 0.41,0.31 1.02,0.46 1.85,0.46l2.89 0 0 -3.79 -2.84 0z"/>
    <path class="fil3" d="M74.1 34.16l-6.82 0 0 10.14 -3.84 0 0 -13.3 10.66 0 0 3.16zm7.74 10.34c-1.4,0 -2.66,-0.29 -3.77,-0.88 -1.11,-0.58 -1.98,-1.39 -2.61,-2.43 -0.63,-1.04 -0.94,-2.22 -0.94,-3.54 0,-1.32 0.31,-2.5 0.94,-3.54 0.63,-1.04 1.5,-1.85 2.61,-2.43 1.11,-0.59 2.37,-0.88 3.77,-0.88 1.4,0 2.66,0.29 3.76,0.88 1.11,0.58 1.97,1.39 2.6,2.43 0.62,1.04 0.94,2.22 0.94,3.54 0,1.32 -0.32,2.5 -0.94,3.54 -0.63,1.04 -1.49,1.85 -2.6,2.43 -1.1,0.59 -2.36,0.88 -3.76,0.88zm0 -3.17c0.99,0 1.8,-0.33 2.44,-1 0.63,-0.66 0.95,-1.56 0.95,-2.68 0,-1.12 -0.32,-2.02 -0.95,-2.68 -0.64,-0.67 -1.45,-1 -2.44,-1 -0.99,0 -1.8,0.33 -2.45,1 -0.64,0.66 -0.96,1.56 -0.96,2.68 0,1.12 0.32,2.02 0.96,2.68 0.65,0.67 1.46,1 2.45,1zm17.78 -10.53c1.24,0 2.36,0.28 3.38,0.85 1.01,0.57 1.81,1.37 2.39,2.4 0.57,1.03 0.86,2.23 0.86,3.6 0,1.37 -0.29,2.57 -0.86,3.6 -0.58,1.03 -1.38,1.83 -2.39,2.4 -1.02,0.57 -2.14,0.85 -3.38,0.85 -1.7,0 -3.03,-0.54 -4,-1.61l0 6.21 -3.86 0 0 -18.1 3.68 0 0 1.53c0.96,-1.15 2.35,-1.73 4.18,-1.73zm-0.66 10.53c0.98,0 1.8,-0.33 2.43,-1 0.64,-0.66 0.95,-1.56 0.95,-2.68 0,-1.12 -0.31,-2.02 -0.95,-2.68 -0.63,-0.67 -1.45,-1 -2.43,-1 -0.99,0 -1.81,0.33 -2.44,1 -0.64,0.66 -0.95,1.56 -0.95,2.68 0,1.12 0.31,2.02 0.95,2.68 0.63,0.67 1.45,1 2.44,1zm16.22 3.17c-1.4,0 -2.66,-0.29 -3.77,-0.88 -1.12,-0.58 -1.99,-1.39 -2.61,-2.43 -0.63,-1.04 -0.94,-2.22 -0.94,-3.54 0,-1.32 0.31,-2.5 0.94,-3.54 0.62,-1.04 1.49,-1.85 2.61,-2.43 1.11,-0.59 2.37,-0.88 3.77,-0.88 1.4,0 2.65,0.29 3.76,0.88 1.1,0.58 1.97,1.39 2.59,2.43 0.63,1.04 0.94,2.22 0.94,3.54 0,1.32 -0.31,2.5 -0.94,3.54 -0.62,1.04 -1.49,1.85 -2.59,2.43 -1.11,0.59 -2.36,0.88 -3.76,0.88zm0 -3.17c0.99,0 1.8,-0.33 2.43,-1 0.64,-0.66 0.96,-1.56 0.96,-2.68 0,-1.12 -0.32,-2.02 -0.96,-2.68 -0.63,-0.67 -1.44,-1 -2.43,-1 -0.99,0 -1.81,0.33 -2.45,1 -0.64,0.66 -0.96,1.56 -0.96,2.68 0,1.12 0.32,2.02 0.96,2.68 0.64,0.67 1.46,1 2.45,1zm24.66 -0.19l0 6.03 -3.59 0 0 -2.87 -9.35 0 0 2.87 -3.58 0 0 -6.03 0.54 0c0.82,-0.02 1.39,-0.51 1.71,-1.46 0.31,-0.96 0.51,-2.32 0.59,-4.08l0.17 -4.6 11.6 0 0 10.14 1.91 0zm-10.19 -5.27c-0.05,1.35 -0.16,2.46 -0.31,3.31 -0.16,0.86 -0.45,1.51 -0.88,1.96l5.61 0 0 -6.98 -4.35 0 -0.07 1.71zm18.94 8.63c-1.42,0 -2.69,-0.29 -3.82,-0.88 -1.13,-0.58 -2.01,-1.39 -2.65,-2.43 -0.63,-1.04 -0.95,-2.22 -0.95,-3.54 0,-1.32 0.32,-2.5 0.95,-3.54 0.64,-1.04 1.52,-1.85 2.65,-2.43 1.13,-0.59 2.4,-0.88 3.82,-0.88 1.4,0 2.63,0.29 3.67,0.88 1.05,0.58 1.81,1.42 2.29,2.51l-2.99 1.61c-0.69,-1.22 -1.69,-1.83 -2.99,-1.83 -1.01,0 -1.84,0.32 -2.5,0.98 -0.66,0.66 -0.99,1.56 -0.99,2.7 0,1.14 0.33,2.04 0.99,2.7 0.66,0.66 1.49,0.98 2.5,0.98 1.31,0 2.31,-0.61 2.99,-1.83l2.99 1.64c-0.48,1.05 -1.24,1.88 -2.29,2.47 -1.04,0.59 -2.27,0.89 -3.67,0.89zm14.17 -5.24l-2 0 0 5.04 -3.86 0 0 -13.3 3.86 0 0 5.17 2.08 0 3.61 -5.17 4.1 0 -4.65 6.38 4.97 6.92 -4.55 0 -3.56 -5.04zm14.94 -8.46c2.06,0 3.64,0.49 4.75,1.47 1.1,0.98 1.65,2.46 1.65,4.44l0 7.59 -3.61 0 0 -1.65c-0.72,1.23 -2.07,1.85 -4.05,1.85 -1.02,0 -1.91,-0.17 -2.66,-0.52 -0.75,-0.35 -1.32,-0.82 -1.72,-1.43 -0.4,-0.61 -0.59,-1.31 -0.59,-2.08 0,-1.24 0.46,-2.21 1.39,-2.92 0.94,-0.71 2.37,-1.06 4.32,-1.06l3.07 0c0,-0.84 -0.26,-1.49 -0.77,-1.94 -0.51,-0.46 -1.28,-0.68 -2.3,-0.68 -0.71,0 -1.41,0.11 -2.09,0.33 -0.68,0.22 -1.27,0.52 -1.74,0.9l-1.39 -2.69c0.73,-0.51 1.6,-0.91 2.61,-1.19 1.01,-0.28 2.06,-0.42 3.13,-0.42zm-0.3 11.1c0.66,0 1.25,-0.15 1.76,-0.45 0.51,-0.31 0.87,-0.76 1.09,-1.35l0 -1.36 -2.65 0c-1.58,0 -2.37,0.52 -2.37,1.56 0,0.49 0.19,0.88 0.58,1.17 0.38,0.29 0.92,0.43 1.59,0.43zm21.89 -10.9l0 13.3 -3.44 0 0 -3.81 -2.84 0 -2.53 3.81 -4.1 0 3.04 -4.35c-0.92,-0.36 -1.63,-0.89 -2.11,-1.57 -0.49,-0.68 -0.73,-1.51 -0.73,-2.49 0,-1.56 0.56,-2.77 1.69,-3.62 1.13,-0.85 2.68,-1.27 4.66,-1.27l6.36 0zm-6.28 3.14c-0.83,0 -1.45,0.15 -1.87,0.44 -0.42,0.3 -0.63,0.78 -0.63,1.44 0,0.66 0.2,1.14 0.61,1.44 0.4,0.31 1.01,0.46 1.84,0.46l2.89 0 0 -3.78 -2.84 0zm24.68 -2.23c1.27,0 2.38,0.26 3.34,0.78 0.95,0.52 1.69,1.25 2.21,2.19 0.52,0.94 0.78,2.03 0.78,3.26 0,1.27 -0.31,2.4 -0.93,3.38 -0.62,0.98 -1.48,1.74 -2.58,2.28 -1.11,0.53 -2.36,0.8 -3.76,0.8 -2.33,0 -4.15,-0.75 -5.48,-2.24 -1.33,-1.49 -1.99,-3.68 -1.99,-6.56 0,-2.68 0.58,-4.81 1.74,-6.4 1.17,-1.59 2.95,-2.63 5.36,-3.13l6.33 -1.26 0.52 3.32 -5.59 1.11c-1.52,0.3 -2.64,0.79 -3.38,1.48 -0.73,0.7 -1.16,1.68 -1.29,2.95 0.57,-0.63 1.26,-1.11 2.07,-1.45 0.81,-0.34 1.69,-0.51 2.65,-0.51zm-0.92 9.7c0.99,0 1.79,-0.32 2.39,-0.97 0.6,-0.64 0.9,-1.46 0.9,-2.45 0,-1 -0.3,-1.8 -0.9,-2.39 -0.6,-0.6 -1.4,-0.9 -2.39,-0.9 -1,0 -1.81,0.3 -2.42,0.9 -0.61,0.59 -0.91,1.39 -0.91,2.39 0,1.01 0.31,1.83 0.93,2.46 0.63,0.64 1.43,0.96 2.4,0.96zm16.1 2.89c-1.4,0 -2.65,-0.29 -3.77,-0.88 -1.11,-0.58 -1.98,-1.39 -2.61,-2.43 -0.62,-1.04 -0.94,-2.22 -0.94,-3.54 0,-1.32 0.32,-2.5 0.94,-3.54 0.63,-1.04 1.5,-1.85 2.61,-2.43 1.12,-0.59 2.37,-0.88 3.77,-0.88 1.41,0 2.66,0.29 3.76,0.88 1.11,0.58 1.97,1.39 2.6,2.43 0.63,1.04 0.94,2.22 0.94,3.54 0,1.32 -0.31,2.5 -0.94,3.54 -0.63,1.04 -1.49,1.85 -2.6,2.43 -1.1,0.59 -2.35,0.88 -3.76,0.88zm0 -3.17c0.99,0 1.81,-0.33 2.44,-1 0.63,-0.66 0.95,-1.56 0.95,-2.68 0,-1.12 -0.32,-2.02 -0.95,-2.68 -0.63,-0.67 -1.45,-1 -2.44,-1 -0.99,0 -1.8,0.33 -2.44,1 -0.65,0.66 -0.97,1.56 -0.97,2.68 0,1.12 0.32,2.02 0.97,2.68 0.64,0.67 1.45,1 2.44,1zm22.51 -10.33l0 13.3 -3.86 0 0 -10.14 -4.2 0 -0.13 2.35c-0.06,1.75 -0.23,3.2 -0.49,4.36 -0.27,1.15 -0.69,2.06 -1.29,2.72 -0.59,0.65 -1.42,0.98 -2.47,0.98 -0.56,0 -1.23,-0.09 -2,-0.29l0.19 -3.17c0.27,0.04 0.46,0.05 0.57,0.05 0.58,0 1.01,-0.21 1.3,-0.63 0.29,-0.42 0.48,-0.96 0.58,-1.61 0.1,-0.65 0.18,-1.51 0.22,-2.58l0.2 -5.34 11.38 0zm10.91 4.25c1.73,0.02 3.05,0.41 3.98,1.18 0.92,0.76 1.38,1.85 1.38,3.25 0,1.47 -0.51,2.61 -1.54,3.42 -1.03,0.82 -2.48,1.23 -4.34,1.23l-6.68 -0.03 0 -13.3 3.83 0 0 4.25 3.37 0zm-0.87 6.33c0.74,0.02 1.31,-0.14 1.71,-0.47 0.39,-0.33 0.59,-0.82 0.59,-1.48 0,-0.64 -0.19,-1.11 -0.58,-1.41 -0.39,-0.3 -0.96,-0.45 -1.72,-0.47l-2.5 -0.03 0 3.86 2.5 0zm8.63 -10.58l3.83 0 0 5.19 5.79 0 0 -5.19 3.86 0 0 13.3 -3.86 0 0 -4.97 -5.79 0 0 4.97 -3.83 0 0 -13.3zm17.16 0l3.84 0 0 7.91 6.48 -7.91 3.53 0 0 13.3 -3.83 0 0 -7.91 -6.45 7.91 -3.57 0 0 -13.3zm32.55 10.14l0 6.08 -3.59 0 0 -2.92 -11.4 0 0 -13.3 3.84 0 0 10.14 5.36 0 0 -10.14 3.86 0 0 10.14 1.93 0zm7.59 -10.34c2.06,0 3.65,0.49 4.75,1.47 1.11,0.98 1.66,2.46 1.66,4.44l0 7.59 -3.61 0 0 -1.65c-0.73,1.23 -2.08,1.85 -4.06,1.85 -1.02,0 -1.91,-0.17 -2.66,-0.52 -0.75,-0.35 -1.32,-0.82 -1.72,-1.43 -0.39,-0.61 -0.59,-1.31 -0.59,-2.08 0,-1.24 0.47,-2.21 1.4,-2.92 0.93,-0.71 2.37,-1.06 4.31,-1.06l3.07 0c0,-0.84 -0.26,-1.49 -0.77,-1.94 -0.51,-0.46 -1.27,-0.68 -2.3,-0.68 -0.71,0 -1.4,0.11 -2.09,0.33 -0.68,0.22 -1.26,0.52 -1.74,0.9l-1.38 -2.69c0.72,-0.51 1.59,-0.91 2.6,-1.19 1.02,-0.28 2.06,-0.42 3.13,-0.42zm-0.29 11.1c0.66,0 1.24,-0.15 1.75,-0.45 0.51,-0.31 0.88,-0.76 1.09,-1.35l0 -1.36 -2.65 0c-1.58,0 -2.37,0.52 -2.37,1.56 0,0.49 0.19,0.88 0.58,1.17 0.39,0.29 0.92,0.43 1.6,0.43z"/>
   </g>
  </g>
 </g>
</svg>
