<svg width="49" height="32" viewBox="0 0 49 32" fill="none" xmlns="http://www.w3.org/2000/svg">
<g clip-path="url(#clip0_1491_8088)">
<path d="M16.4436 25.5801H9.85938V32.001H16.4436V25.5801Z" fill="#DA2308"/>
<path d="M42.6109 1.45723L42.5992 1.46734V1.41511L38.5673 4.54721V0.028492H38.5992V0.0234375H34.384L29.8359 4.559V6.414H36.2234V22.5783H42.5992V1.46734L42.6109 1.45723Z" fill="white"/>
<path d="M26.2999 0.0252725H19.9561V0.00505449H14.5623L10.1151 4.48334L10.0361 4.56252V0H0V6.42258H10.0361V22.5784H16.4135V6.44785H26.2999V0.0252725Z" fill="white"/>
<path d="M42.6023 7.2793V13.4997L36.2266 18.5121V12.29L42.6023 7.2793Z" fill="#DA2308"/>
<path d="M42.5992 25.5879H36.2235L29.8242 29.5978V32.0004H34.073H39.1272H43.2987H44.0065H48.9985V29.8084L42.5992 25.5879Z" fill="white"/>
</g>
<defs>
<clipPath id="clip0_1491_8088">
<rect width="49" height="32" fill="white"/>
</clipPath>
</defs>
</svg>
